<?xml version="1.0" encoding="utf-8"?>
<!-- Generator: Adobe Illustrator 26.0.1, SVG Export Plug-In . SVG Version: 6.00 Build 0)  -->
<svg version="1.1" id="Layer_1" xmlns="http://www.w3.org/2000/svg" xmlns:xlink="http://www.w3.org/1999/xlink" x="0px" y="0px"
	 viewBox="0 0 205.3 305.79" style="enable-background:new 0 0 205.3 305.79;" xml:space="preserve">
<style type="text/css">
	.st0{fill:#414141;}
	.st1{fill:#363534;}
	.st2{fill:#565656;}
	.st3{opacity:0.1;fill:#FFFFFF;}
	.st4{fill:#887F7F;}
	.st5{fill:#A1B274;}
	.st6{fill:#596A30;}
	.st7{fill-rule:evenodd;clip-rule:evenodd;fill:#856A3C;}
	.st8{fill-rule:evenodd;clip-rule:evenodd;fill:#A1B274;}
	.st9{fill:#B3C386;}
	.st10{fill:#6A7C42;}
	.st11{fill-rule:evenodd;clip-rule:evenodd;fill:#977C4E;}
	.st12{fill-rule:evenodd;clip-rule:evenodd;fill:#B3C386;}
	.st13{fill:#D1E2A4;}
	.st14{fill:#889A5F;}
	.st15{fill-rule:evenodd;clip-rule:evenodd;fill:#B59B6D;}
	.st16{fill-rule:evenodd;clip-rule:evenodd;fill:#D1E2A4;}
	.st17{fill:#ACACAE;}
	.st18{fill:#C8C8CE;}
	.st19{fill:#DB3327;}
	.st20{fill:#4C4C4C;}
	.st21{fill:#958EA8;}
	.st22{fill:#DDE0E8;}
	.st23{opacity:0.5;}
	.st24{fill:#86B8AA;}
	.st25{fill:#6A8D86;}
	.st26{fill:#3C3C3B;}
	.st27{fill:#F7F8F8;}
	.st28{opacity:0.7;}
	.st29{opacity:0.3;}
	.st30{fill:#B7ACD3;}
	.st31{fill:#5A595F;}
	.st32{fill:#F15B48;}
	.st33{fill:#FFFFFF;}
	.st34{opacity:0.5;fill:#565656;}
	.st35{opacity:0.3;fill:#FFFFFF;}
	.st36{opacity:0.4;}
</style>
<g>
	<g>
		<path class="st0" d="M205.26,256.5c0,4.59-3.76,8.35-8.35,8.35H8.35c-4.59,0-8.35-3.76-8.35-8.35V45.27
			c0-4.59,3.76-8.35,8.35-8.35h188.55c4.59,0,8.35,3.76,8.35,8.35V256.5z"/>
		<rect x="7.53" y="229.62" class="st1" width="190.5" height="28.78"/>
		<path class="st2" d="M195.3,297.44c0,4.59-3.76,8.35-8.35,8.35H18.39c-4.59,0-8.35-3.76-8.35-8.35V71.21
			c0-4.59,3.76-8.35,8.35-8.35h168.55c4.59,0,8.35,3.76,8.35,8.35V297.44z"/>
		<polygon class="st3" points="36.3,305.79 78.61,305.79 91.77,267.15 49.46,267.15 		"/>
		<polygon class="st3" points="84.92,305.79 104.19,305.79 117.36,267.15 98.08,267.15 		"/>
		<g>
			<path class="st0" d="M18.39,277.69c-3.5,0-6.35-2.85-6.35-6.35V47.11c0-3.5,2.85-6.35,6.35-6.35h168.55
				c3.5,0,6.35,2.85,6.35,6.35v224.23c0,3.5-2.85,6.35-6.35,6.35H18.39z"/>
			<path class="st4" d="M186.95,42.75c2.4,0,4.35,1.95,4.35,4.35v224.23c0,2.4-1.95,4.35-4.35,4.35H18.39
				c-2.4,0-4.35-1.95-4.35-4.35V47.11c0-2.4,1.95-4.35,4.35-4.35H186.95L186.95,42.75z M186.95,38.75H18.39
				c-4.59,0-8.35,3.76-8.35,8.35v224.23c0,4.59,3.76,8.35,8.35,8.35h168.55c4.59,0,8.35-3.76,8.35-8.35V47.11
				C195.3,42.51,191.54,38.75,186.95,38.75L186.95,38.75z"/>
		</g>
		<g>
			<g>
				<g>
					
						<rect x="6.48" y="213.45" transform="matrix(2.485619e-03 -1 1 2.485619e-03 -186.9028 274.622)" class="st5" width="75.43" height="35.1"/>
					<path class="st6" d="M28.31,194.81l31.95,0.08l-0.18,72.29l-31.95-0.08L28.31,194.81L28.31,194.81z M25.18,191.66l-0.19,78.58
						l38.24,0.1l0.2-78.58L25.18,191.66L25.18,191.66z"/>
				</g>
				<g>
					<path class="st6" d="M28.55,202.62c4.24,0.01,7.68-3.42,7.69-7.65c0-1.17-0.26-2.29-0.73-3.28l-10.33-0.03l-0.02,10.16
						C26.18,202.33,27.33,202.62,28.55,202.62z"/>
				</g>
				<g>
					<path class="st6" d="M28.4,259.29c4.24,0.01,7.67,3.45,7.66,7.69c0,1.17-0.27,2.28-0.74,3.28l-10.33-0.03l0.03-10.16
						C26.03,259.57,27.19,259.29,28.4,259.29z"/>
				</g>
				<g>
					<path class="st6" d="M59.86,259.37c-4.24-0.01-7.68,3.42-7.69,7.66c0,1.17,0.26,2.28,0.73,3.28l10.33,0.03l0.03-10.16
						C62.23,259.66,61.08,259.37,59.86,259.37z"/>
				</g>
				<g>
					<path class="st6" d="M60,202.7c-4.24-0.01-7.67-3.45-7.66-7.69c0-1.17,0.27-2.28,0.74-3.28l10.33,0.03l-0.03,10.16
						C62.37,202.42,61.22,202.7,60,202.7z"/>
				</g>
			</g>
			<path class="st7" d="M48.82,229.21c-0.09-0.05-0.12-0.15-0.18-0.23c0.08,0.05,0.15,0.12,0.21,0.2
				C48.85,229.19,48.83,229.2,48.82,229.21z"/>
			<path class="st7" d="M47.66,227.68c0-0.01,0-0.02,0-0.03c0.03,0,0.08,0.01,0.07,0.04C47.72,227.73,47.69,227.71,47.66,227.68z"/>
			<g>
				<path class="st6" d="M44.24,214.85c9.99,0.02,18.07,7.27,18.05,16.19c-0.02,8.92-8.14,16.12-18.13,16.1
					c-9.99-0.02-18.07-7.27-18.05-16.19C26.13,222.03,34.25,214.83,44.24,214.85z"/>
				<g>
					<path class="st8" d="M51.52,225.71c0.92,0.86,1.51,2.23,1.76,4l0.03,0.28l1.73-0.03c0,0,0.25,0.41,0.26,1.03
						c0.01,0.62-0.22,1.15-0.22,1.15l-1.79,0.03l-0.02,0.06c-0.1,1.38-0.54,2.46-1.33,3.5c-0.76,1.02-2.16,1.59-4.14,1.62
						l-0.67,0.01c0,0-0.51-0.95-0.54-2.56c-0.03-1.61,0.44-2.52,0.44-2.52l0.9-0.02c1.73-0.03,2.21-0.08,2.42-0.16
						c0.28-0.11,0.61-0.31,0.6-0.97c-0.01-0.43-0.15-0.76-0.42-0.98c-0.26-0.21-0.63-0.31-1.11-0.3c-1.08,0.02-1.85,0.12-2.33,0.31
						c-0.51,0.2-1.02,0.81-1.57,1.86c-0.85,1.63-1.49,2.76-1.89,3.35c-0.39,0.56-0.95,1.07-1.67,1.49
						c-0.71,0.42-1.54,0.66-2.45,0.68c-1.33,0.02-2.35-0.33-3.11-1.18c-0.77-0.85-1.27-2.08-1.48-3.83l-0.02-0.04l-1.47,0.03
						c0,0-0.33-0.36-0.34-1.14c-0.01-0.78,0.3-1.04,0.3-1.04l1.46-0.03l0.02-0.28c0.15-1.59,0.59-2.87,1.32-3.67
						c0.72-0.78,1.74-1.18,3.04-1.2c0.15,0,0.36,0.02,0.63,0.04c0,0,0.51,0.87,0.54,2.39c0.03,1.52-0.44,2.63-0.44,2.63l-0.53,0.01
						c-0.88,0.02-1.43,0.01-1.72,0.16c-0.34,0.17-0.51,0.43-0.5,0.93c0.01,0.4,0.16,0.71,0.44,0.92c0.27,0.19,0.64,0.28,1.14,0.27
						c0.8-0.01,1.38-0.22,1.71-0.62c0.3-0.35,0.86-1.32,1.69-2.96c0.68-1.36,1.21-2.29,1.57-2.78c0.35-0.47,0.85-0.87,1.51-1.21
						c0.65-0.33,1.49-0.49,2.48-0.51C49.34,224.42,50.61,224.86,51.52,225.71z"/>
				</g>
			</g>
		</g>
		<g>
			<g>
				<g>
					
						<rect x="6.48" y="207.89" transform="matrix(2.485619e-03 -1 1 2.485619e-03 -181.3503 269.0833)" class="st9" width="75.43" height="35.1"/>
					<path class="st10" d="M28.31,189.26l31.95,0.08l-0.18,72.29l-31.95-0.08L28.31,189.26L28.31,189.26z M25.18,186.11l-0.19,78.58
						l38.24,0.1l0.2-78.58L25.18,186.11L25.18,186.11z"/>
				</g>
				<g>
					<path class="st10" d="M28.55,197.07c4.24,0.01,7.68-3.42,7.69-7.65c0-1.17-0.26-2.29-0.73-3.28l-10.33-0.03l-0.02,10.16
						C26.18,196.78,27.33,197.06,28.55,197.07z"/>
				</g>
				<g>
					<path class="st10" d="M28.4,253.74c4.24,0.01,7.67,3.45,7.66,7.69c0,1.17-0.27,2.28-0.74,3.28l-10.33-0.03l0.03-10.16
						C26.03,254.02,27.19,253.74,28.4,253.74z"/>
				</g>
				<g>
					<path class="st10" d="M59.86,253.82c-4.24-0.01-7.68,3.42-7.69,7.66c0,1.17,0.26,2.28,0.73,3.28l10.33,0.03l0.03-10.16
						C62.23,254.11,61.08,253.82,59.86,253.82z"/>
				</g>
				<g>
					<path class="st10" d="M60,197.15c-4.24-0.01-7.67-3.45-7.66-7.69c0-1.17,0.27-2.28,0.74-3.28l10.33,0.03l-0.03,10.16
						C62.37,196.87,61.22,197.15,60,197.15z"/>
				</g>
			</g>
			<path class="st11" d="M48.82,223.66c-0.09-0.05-0.12-0.15-0.18-0.23c0.08,0.05,0.15,0.12,0.21,0.2
				C48.85,223.64,48.83,223.65,48.82,223.66z"/>
			<path class="st11" d="M47.66,222.13c0-0.01,0-0.02,0-0.03c0.03,0,0.08,0.01,0.07,0.04C47.72,222.18,47.69,222.16,47.66,222.13z"
				/>
			<g>
				<path class="st10" d="M44.24,209.3c9.99,0.02,18.07,7.27,18.05,16.19c-0.02,8.92-8.14,16.12-18.13,16.1
					c-9.99-0.03-18.07-7.27-18.05-16.19C26.13,216.48,34.25,209.27,44.24,209.3z"/>
				<g>
					<path class="st12" d="M51.52,220.16c0.92,0.86,1.51,2.23,1.76,4l0.03,0.28l1.73-0.03c0,0,0.25,0.41,0.26,1.03
						c0.01,0.62-0.22,1.15-0.22,1.15l-1.79,0.03l-0.02,0.06c-0.1,1.38-0.54,2.46-1.33,3.5c-0.76,1.02-2.16,1.59-4.14,1.62
						l-0.67,0.01c0,0-0.51-0.95-0.54-2.56c-0.03-1.61,0.44-2.52,0.44-2.52l0.9-0.02c1.73-0.03,2.21-0.08,2.42-0.16
						c0.28-0.11,0.61-0.31,0.6-0.97c-0.01-0.43-0.15-0.76-0.42-0.98c-0.26-0.21-0.63-0.31-1.11-0.3c-1.08,0.02-1.85,0.12-2.33,0.31
						c-0.51,0.2-1.02,0.81-1.57,1.86c-0.85,1.63-1.49,2.76-1.89,3.35c-0.39,0.56-0.95,1.07-1.67,1.49
						c-0.71,0.42-1.54,0.66-2.45,0.68c-1.33,0.02-2.35-0.33-3.11-1.18c-0.77-0.85-1.27-2.08-1.48-3.83l-0.02-0.04l-1.47,0.03
						c0,0-0.33-0.36-0.34-1.14c-0.01-0.78,0.3-1.04,0.3-1.04l1.46-0.03l0.02-0.28c0.15-1.59,0.59-2.87,1.32-3.67
						c0.72-0.78,1.74-1.18,3.04-1.2c0.15,0,0.36,0.02,0.63,0.04c0,0,0.51,0.87,0.54,2.39c0.03,1.52-0.44,2.63-0.44,2.63l-0.53,0.01
						c-0.88,0.02-1.43,0.01-1.72,0.16c-0.34,0.17-0.51,0.43-0.5,0.93c0.01,0.4,0.16,0.71,0.44,0.92c0.27,0.19,0.64,0.28,1.14,0.27
						c0.8-0.01,1.38-0.22,1.71-0.62c0.3-0.35,0.86-1.32,1.69-2.96c0.68-1.35,1.21-2.29,1.57-2.78c0.35-0.47,0.85-0.87,1.51-1.21
						c0.65-0.33,1.49-0.49,2.48-0.51C49.34,218.87,50.61,219.3,51.52,220.16z"/>
				</g>
			</g>
		</g>
		<g>
			<g>
				<g>
					
						<rect x="64.91" y="209.18" transform="matrix(2.484293e-03 -1 1 2.484293e-03 -124.3505 328.7953)" class="st9" width="75.43" height="35.1"/>
					<path class="st10" d="M86.74,190.54l31.95,0.08l-0.18,72.29l-31.95-0.08L86.74,190.54L86.74,190.54z M83.61,187.39l-0.19,78.58
						l38.24,0.1l0.2-78.58L83.61,187.39L83.61,187.39z"/>
				</g>
				<g>
					<path class="st10" d="M86.98,198.35c4.24,0.01,7.68-3.42,7.69-7.65c0-1.17-0.26-2.29-0.73-3.28l-10.33-0.03l-0.02,10.16
						C84.61,198.06,85.76,198.35,86.98,198.35z"/>
				</g>
				<g>
					<path class="st10" d="M86.83,255.02c4.24,0.01,7.67,3.45,7.66,7.69c0,1.17-0.27,2.28-0.74,3.28l-10.33-0.03l0.03-10.16
						C84.46,255.3,85.62,255.02,86.83,255.02z"/>
				</g>
				<g>
					<path class="st10" d="M118.29,255.1c-4.24-0.01-7.68,3.42-7.69,7.66c0,1.17,0.26,2.28,0.73,3.28l10.33,0.03l0.03-10.16
						C120.66,255.39,119.51,255.11,118.29,255.1z"/>
				</g>
				<g>
					<path class="st10" d="M118.43,198.43c-4.24-0.01-7.67-3.45-7.66-7.69c0-1.17,0.27-2.28,0.74-3.28l10.33,0.03l-0.03,10.16
						C120.8,198.15,119.65,198.43,118.43,198.43z"/>
				</g>
			</g>
			<path class="st11" d="M107.25,224.94c-0.09-0.05-0.12-0.15-0.18-0.23c0.08,0.05,0.15,0.12,0.21,0.2
				C107.28,224.92,107.26,224.93,107.25,224.94z"/>
			<path class="st11" d="M106.09,223.42c0-0.01,0-0.02,0-0.03c0.03,0,0.08,0.01,0.07,0.04
				C106.15,223.47,106.12,223.44,106.09,223.42z"/>
			<g>
				<path class="st10" d="M102.67,210.58c9.99,0.02,18.07,7.27,18.05,16.19c-0.02,8.92-8.14,16.12-18.13,16.1
					c-9.99-0.03-18.07-7.27-18.05-16.19C84.56,217.77,92.68,210.56,102.67,210.58z"/>
				<g>
					<path class="st12" d="M109.95,221.44c0.92,0.86,1.51,2.23,1.76,4l0.03,0.28l1.73-0.03c0,0,0.25,0.41,0.26,1.03
						c0.01,0.62-0.22,1.15-0.22,1.15l-1.79,0.03l-0.02,0.06c-0.1,1.38-0.54,2.46-1.33,3.5c-0.76,1.02-2.16,1.59-4.14,1.62
						l-0.67,0.01c0,0-0.51-0.95-0.54-2.56c-0.03-1.61,0.44-2.52,0.44-2.52l0.9-0.02c1.73-0.03,2.21-0.08,2.42-0.16
						c0.28-0.11,0.61-0.31,0.6-0.97c-0.01-0.43-0.15-0.76-0.42-0.98c-0.26-0.21-0.63-0.31-1.11-0.3c-1.08,0.02-1.85,0.12-2.33,0.31
						c-0.51,0.2-1.02,0.81-1.57,1.86c-0.85,1.63-1.49,2.76-1.89,3.35c-0.39,0.56-0.95,1.07-1.67,1.49
						c-0.71,0.42-1.54,0.66-2.45,0.68c-1.33,0.02-2.35-0.33-3.11-1.18c-0.77-0.85-1.27-2.08-1.48-3.83l-0.02-0.04l-1.47,0.03
						c0,0-0.33-0.36-0.34-1.14c-0.01-0.78,0.3-1.04,0.3-1.04l1.46-0.03l0.02-0.28c0.15-1.59,0.59-2.87,1.32-3.67
						c0.72-0.78,1.74-1.18,3.04-1.2c0.15,0,0.36,0.02,0.63,0.04c0,0,0.51,0.87,0.54,2.39c0.03,1.52-0.44,2.63-0.44,2.63l-0.53,0.01
						c-0.88,0.02-1.43,0.01-1.72,0.16c-0.34,0.17-0.51,0.43-0.5,0.93c0.01,0.4,0.16,0.71,0.44,0.92c0.27,0.19,0.64,0.28,1.14,0.27
						c0.8-0.01,1.38-0.22,1.71-0.62c0.3-0.35,0.86-1.32,1.69-2.96c0.68-1.35,1.21-2.29,1.57-2.78c0.35-0.47,0.85-0.87,1.51-1.21
						c0.65-0.33,1.49-0.49,2.48-0.51C107.77,220.15,109.04,220.59,109.95,221.44z"/>
				</g>
			</g>
		</g>
		<g>
			<g>
				<g>
					
						<rect x="124.19" y="205.18" transform="matrix(2.485619e-03 -1 1 2.485619e-03 -61.2189 384.0839)" class="st9" width="75.43" height="35.1"/>
					<path class="st10" d="M146.02,186.54l31.95,0.08l-0.18,72.29l-31.95-0.08L146.02,186.54L146.02,186.54z M142.89,183.39
						l-0.19,78.58l38.24,0.1l0.2-78.58L142.89,183.39L142.89,183.39z"/>
				</g>
				<g>
					<path class="st10" d="M146.25,194.35c4.24,0.01,7.68-3.42,7.69-7.65c0-1.17-0.26-2.29-0.73-3.28l-10.33-0.03l-0.02,10.16
						C143.89,194.06,145.04,194.35,146.25,194.35z"/>
				</g>
				<g>
					<path class="st10" d="M146.11,251.02c4.24,0.01,7.67,3.45,7.66,7.69c0,1.17-0.27,2.28-0.74,3.28l-10.33-0.03l0.03-10.16
						C143.74,251.3,144.9,251.02,146.11,251.02z"/>
				</g>
				<g>
					<path class="st10" d="M177.57,251.1c-4.24-0.01-7.68,3.42-7.69,7.66c0,1.17,0.26,2.28,0.73,3.28l10.33,0.03l0.03-10.16
						C179.94,251.39,178.78,251.11,177.57,251.1z"/>
				</g>
				<g>
					<path class="st10" d="M177.71,194.43c-4.24-0.01-7.67-3.45-7.66-7.69c0-1.17,0.27-2.28,0.74-3.28l10.33,0.03l-0.03,10.16
						C180.08,194.15,178.93,194.43,177.71,194.43z"/>
				</g>
			</g>
			<path class="st11" d="M166.53,220.94c-0.09-0.05-0.12-0.15-0.18-0.23c0.08,0.05,0.15,0.12,0.21,0.2
				C166.56,220.92,166.54,220.93,166.53,220.94z"/>
			<path class="st11" d="M165.37,219.42c0-0.01,0-0.02,0-0.03c0.03,0,0.08,0.01,0.07,0.04
				C165.43,219.47,165.39,219.44,165.37,219.42z"/>
			<g>
				<path class="st10" d="M161.95,206.58c9.99,0.02,18.07,7.27,18.05,16.19c-0.02,8.92-8.14,16.12-18.13,16.1
					c-9.99-0.03-18.07-7.27-18.05-16.19C143.84,213.77,151.96,206.56,161.95,206.58z"/>
				<g>
					<path class="st12" d="M169.23,217.44c0.92,0.86,1.51,2.23,1.76,4l0.03,0.28l1.73-0.03c0,0,0.25,0.41,0.26,1.03
						c0.01,0.62-0.22,1.15-0.22,1.15l-1.79,0.03l-0.02,0.06c-0.1,1.38-0.54,2.46-1.33,3.5c-0.76,1.02-2.16,1.59-4.14,1.62
						l-0.67,0.01c0,0-0.51-0.95-0.54-2.56c-0.03-1.61,0.44-2.52,0.44-2.52l0.9-0.02c1.73-0.03,2.21-0.08,2.42-0.16
						c0.28-0.11,0.61-0.31,0.6-0.97c-0.01-0.43-0.15-0.76-0.42-0.98c-0.26-0.21-0.63-0.31-1.11-0.3c-1.08,0.02-1.85,0.12-2.33,0.31
						c-0.51,0.2-1.02,0.81-1.57,1.86c-0.85,1.63-1.49,2.76-1.89,3.35c-0.39,0.56-0.95,1.07-1.67,1.49
						c-0.71,0.42-1.54,0.66-2.45,0.68c-1.33,0.02-2.35-0.33-3.11-1.18c-0.77-0.85-1.27-2.08-1.48-3.83l-0.02-0.04l-1.47,0.03
						c0,0-0.33-0.36-0.34-1.14c-0.01-0.78,0.3-1.04,0.3-1.04l1.46-0.03l0.02-0.28c0.15-1.59,0.59-2.87,1.32-3.67
						c0.72-0.78,1.74-1.18,3.04-1.2c0.15,0,0.36,0.02,0.63,0.04c0,0,0.51,0.87,0.54,2.39c0.03,1.52-0.44,2.63-0.44,2.63l-0.53,0.01
						c-0.88,0.02-1.43,0.01-1.72,0.16c-0.34,0.17-0.51,0.43-0.5,0.93c0.01,0.4,0.16,0.71,0.44,0.92c0.27,0.19,0.64,0.28,1.14,0.27
						c0.8-0.01,1.38-0.22,1.71-0.62c0.3-0.35,0.86-1.32,1.69-2.96c0.68-1.35,1.21-2.29,1.57-2.78c0.35-0.47,0.85-0.87,1.51-1.21
						c0.65-0.33,1.49-0.49,2.48-0.51C167.05,216.15,168.32,216.59,169.23,217.44z"/>
				</g>
			</g>
		</g>
		<g>
			<g>
				<g>
					
						<rect x="6.48" y="201.92" transform="matrix(2.485619e-03 -1 1 2.485619e-03 -175.3773 263.1252)" class="st13" width="75.43" height="35.1"/>
					<path class="st14" d="M28.31,183.28l31.95,0.08l-0.18,72.29l-31.95-0.08L28.31,183.28L28.31,183.28z M25.18,180.13l-0.19,78.58
						l38.24,0.1l0.2-78.58L25.18,180.13L25.18,180.13z"/>
				</g>
				<g>
					<path class="st14" d="M28.55,191.09c4.24,0.01,7.68-3.42,7.69-7.65c0-1.17-0.26-2.29-0.73-3.28l-10.33-0.03l-0.02,10.16
						C26.18,190.8,27.33,191.09,28.55,191.09z"/>
				</g>
				<g>
					<path class="st14" d="M28.4,247.77c4.24,0.01,7.67,3.45,7.66,7.69c0,1.17-0.27,2.28-0.74,3.28l-10.33-0.03l0.03-10.16
						C26.03,248.05,27.19,247.76,28.4,247.77z"/>
				</g>
				<g>
					<path class="st14" d="M59.86,247.84c-4.24-0.01-7.68,3.42-7.69,7.66c0,1.17,0.26,2.28,0.73,3.28l10.33,0.03l0.03-10.16
						C62.23,248.14,61.08,247.85,59.86,247.84z"/>
				</g>
				<g>
					<path class="st14" d="M60,191.17c-4.24-0.01-7.67-3.45-7.66-7.69c0-1.17,0.27-2.28,0.74-3.28l10.33,0.03l-0.03,10.16
						C62.37,190.89,61.22,191.18,60,191.17z"/>
				</g>
			</g>
			<path class="st15" d="M48.82,217.69c-0.09-0.05-0.12-0.15-0.18-0.23c0.08,0.05,0.15,0.12,0.21,0.2
				C48.85,217.66,48.83,217.67,48.82,217.69z"/>
			<path class="st15" d="M47.66,216.16c0-0.01,0-0.02,0-0.03c0.03,0,0.08,0.01,0.07,0.04C47.72,216.21,47.69,216.19,47.66,216.16z"
				/>
			<g>
				<path class="st14" d="M44.24,203.33c9.99,0.02,18.07,7.27,18.05,16.19c-0.02,8.92-8.14,16.12-18.13,16.1
					c-9.99-0.03-18.07-7.27-18.05-16.19C26.13,210.51,34.25,203.3,44.24,203.33z"/>
				<g>
					<path class="st16" d="M51.52,214.18c0.92,0.86,1.51,2.23,1.76,4l0.03,0.28l1.73-0.03c0,0,0.25,0.41,0.26,1.03
						c0.01,0.62-0.22,1.15-0.22,1.15l-1.79,0.03l-0.02,0.06c-0.1,1.38-0.54,2.46-1.33,3.5c-0.76,1.02-2.16,1.59-4.14,1.62
						l-0.67,0.01c0,0-0.51-0.95-0.54-2.56c-0.03-1.61,0.44-2.52,0.44-2.52l0.9-0.02c1.73-0.03,2.21-0.08,2.42-0.16
						c0.28-0.11,0.61-0.31,0.6-0.97c-0.01-0.43-0.15-0.76-0.42-0.98c-0.26-0.21-0.63-0.31-1.11-0.3c-1.08,0.02-1.85,0.12-2.33,0.31
						c-0.51,0.2-1.02,0.81-1.57,1.86c-0.85,1.63-1.49,2.76-1.89,3.34c-0.39,0.56-0.95,1.07-1.67,1.49
						c-0.71,0.42-1.54,0.66-2.45,0.68c-1.33,0.02-2.35-0.33-3.11-1.18c-0.77-0.85-1.27-2.08-1.48-3.83l-0.02-0.04L33.44,221
						c0,0-0.33-0.36-0.34-1.14c-0.01-0.78,0.3-1.04,0.3-1.04l1.46-0.03l0.02-0.28c0.15-1.59,0.59-2.87,1.32-3.67
						c0.72-0.78,1.74-1.18,3.04-1.2c0.15,0,0.36,0.02,0.63,0.04c0,0,0.51,0.87,0.54,2.39c0.03,1.52-0.44,2.63-0.44,2.63l-0.53,0.01
						c-0.88,0.02-1.43,0.01-1.72,0.16c-0.34,0.17-0.51,0.43-0.5,0.93c0.01,0.4,0.16,0.71,0.44,0.92c0.27,0.19,0.64,0.28,1.14,0.27
						c0.8-0.01,1.38-0.22,1.71-0.62c0.3-0.35,0.86-1.32,1.69-2.96c0.68-1.36,1.21-2.29,1.57-2.78c0.35-0.47,0.85-0.87,1.51-1.21
						c0.65-0.33,1.49-0.49,2.48-0.51C49.34,212.89,50.61,213.33,51.52,214.18z"/>
				</g>
			</g>
		</g>
		<g>
			<g>
				<g>
					
						<rect x="64.91" y="203.09" transform="matrix(2.484293e-03 -1 1 2.484293e-03 -118.2634 322.7233)" class="st13" width="75.43" height="35.1"/>
					<path class="st14" d="M86.74,184.46l31.95,0.08l-0.18,72.29l-31.95-0.08L86.74,184.46L86.74,184.46z M83.61,181.3l-0.19,78.58
						l38.24,0.1l0.2-78.58L83.61,181.3L83.61,181.3z"/>
				</g>
				<g>
					<path class="st14" d="M86.98,192.27c4.24,0.01,7.68-3.42,7.69-7.65c0-1.17-0.26-2.29-0.73-3.28l-10.33-0.03l-0.02,10.16
						C84.61,191.97,85.76,192.26,86.98,192.27z"/>
				</g>
				<g>
					<path class="st14" d="M86.83,248.94c4.24,0.01,7.67,3.45,7.66,7.69c0,1.17-0.27,2.28-0.74,3.28l-10.33-0.03l0.03-10.16
						C84.46,249.22,85.62,248.93,86.83,248.94z"/>
				</g>
				<g>
					<path class="st14" d="M118.29,249.02c-4.24-0.01-7.68,3.42-7.69,7.66c0,1.17,0.26,2.28,0.73,3.28l10.33,0.03l0.03-10.16
						C120.66,249.31,119.51,249.02,118.29,249.02z"/>
				</g>
				<g>
					<path class="st14" d="M118.43,192.34c-4.24-0.01-7.67-3.45-7.66-7.69c0-1.17,0.27-2.28,0.74-3.28l10.33,0.03l-0.03,10.16
						C120.8,192.06,119.65,192.35,118.43,192.34z"/>
				</g>
			</g>
			<path class="st15" d="M107.25,218.86c-0.09-0.05-0.12-0.15-0.18-0.23c0.08,0.05,0.15,0.12,0.21,0.2
				C107.28,218.83,107.26,218.85,107.25,218.86z"/>
			<path class="st15" d="M106.09,217.33c0-0.01,0-0.02,0-0.03c0.03,0,0.08,0.01,0.07,0.04
				C106.15,217.38,106.12,217.36,106.09,217.33z"/>
			<g>
				<path class="st14" d="M102.67,204.5c9.99,0.02,18.07,7.27,18.05,16.19c-0.02,8.92-8.14,16.12-18.13,16.1
					c-9.99-0.02-18.07-7.27-18.05-16.19C84.56,211.68,92.68,204.47,102.67,204.5z"/>
				<g>
					<path class="st16" d="M109.95,215.35c0.92,0.86,1.51,2.23,1.76,4l0.03,0.28l1.73-0.03c0,0,0.25,0.41,0.26,1.03
						c0.01,0.62-0.22,1.15-0.22,1.15l-1.79,0.03l-0.02,0.06c-0.1,1.38-0.54,2.46-1.33,3.5c-0.76,1.02-2.16,1.59-4.14,1.62
						l-0.67,0.01c0,0-0.51-0.95-0.54-2.56c-0.03-1.61,0.44-2.52,0.44-2.52l0.9-0.02c1.73-0.03,2.21-0.08,2.42-0.16
						c0.28-0.11,0.61-0.31,0.6-0.97c-0.01-0.43-0.15-0.76-0.42-0.98c-0.26-0.21-0.63-0.31-1.11-0.3c-1.08,0.02-1.85,0.12-2.33,0.31
						c-0.51,0.2-1.02,0.81-1.57,1.86c-0.85,1.63-1.49,2.76-1.89,3.34c-0.39,0.56-0.95,1.07-1.67,1.49
						c-0.71,0.42-1.54,0.66-2.45,0.68c-1.33,0.02-2.35-0.33-3.11-1.18c-0.77-0.85-1.27-2.08-1.48-3.83l-0.02-0.04l-1.47,0.03
						c0,0-0.33-0.36-0.34-1.14c-0.01-0.78,0.3-1.04,0.3-1.04l1.46-0.03l0.02-0.28c0.15-1.59,0.59-2.87,1.32-3.67
						c0.72-0.78,1.74-1.18,3.04-1.2c0.15,0,0.36,0.02,0.63,0.04c0,0,0.51,0.87,0.54,2.39c0.03,1.52-0.44,2.63-0.44,2.63l-0.53,0.01
						c-0.88,0.02-1.43,0.01-1.72,0.16c-0.34,0.17-0.51,0.43-0.5,0.93c0.01,0.4,0.16,0.71,0.44,0.92c0.27,0.19,0.64,0.28,1.14,0.27
						c0.8-0.01,1.38-0.22,1.71-0.62c0.3-0.35,0.86-1.32,1.69-2.96c0.68-1.36,1.21-2.29,1.57-2.78c0.35-0.47,0.85-0.87,1.51-1.21
						c0.65-0.33,1.49-0.49,2.48-0.51C107.77,214.06,109.04,214.5,109.95,215.35z"/>
				</g>
			</g>
		</g>
		<g>
			<g>
				<g>
					
						<rect x="124.34" y="199.09" transform="matrix(2.485619e-03 -1 1 2.485619e-03 -54.9813 378.1627)" class="st13" width="75.43" height="35.1"/>
					<path class="st14" d="M146.17,180.46l31.95,0.08l-0.18,72.29L146,252.75L146.17,180.46L146.17,180.46z M143.04,177.3
						l-0.19,78.58l38.24,0.1l0.2-78.58L143.04,177.3L143.04,177.3z"/>
				</g>
				<g>
					<path class="st14" d="M146.4,188.27c4.24,0.01,7.68-3.42,7.69-7.65c0-1.17-0.26-2.29-0.73-3.28l-10.33-0.03l-0.02,10.16
						C144.04,187.97,145.19,188.26,146.4,188.27z"/>
				</g>
				<g>
					<path class="st14" d="M146.26,244.94c4.24,0.01,7.67,3.45,7.66,7.69c0,1.17-0.27,2.28-0.74,3.28l-10.33-0.03l0.03-10.16
						C143.89,245.22,145.05,244.93,146.26,244.94z"/>
				</g>
				<g>
					<path class="st14" d="M177.72,245.02c-4.24-0.01-7.68,3.42-7.69,7.66c0,1.17,0.26,2.28,0.73,3.28l10.33,0.03l0.03-10.16
						C180.09,245.31,178.94,245.02,177.72,245.02z"/>
				</g>
				<g>
					<path class="st14" d="M177.86,188.34c-4.24-0.01-7.67-3.45-7.66-7.69c0-1.17,0.27-2.28,0.74-3.28l10.33,0.03l-0.03,10.16
						C180.23,188.06,179.08,188.35,177.86,188.34z"/>
				</g>
			</g>
			<path class="st15" d="M166.68,214.86c-0.09-0.05-0.12-0.15-0.18-0.23c0.08,0.05,0.15,0.12,0.21,0.2
				C166.71,214.83,166.7,214.85,166.68,214.86z"/>
			<path class="st15" d="M165.52,213.33c0-0.01,0-0.02,0-0.03c0.03,0,0.08,0.01,0.07,0.04
				C165.58,213.38,165.55,213.36,165.52,213.33z"/>
			<g>
				<path class="st14" d="M162.1,200.5c9.99,0.02,18.07,7.27,18.05,16.19c-0.02,8.92-8.14,16.12-18.13,16.1
					c-9.99-0.02-18.07-7.27-18.05-16.19C143.99,207.68,152.11,200.47,162.1,200.5z"/>
				<g>
					<path class="st16" d="M169.38,211.35c0.92,0.86,1.51,2.23,1.76,4l0.03,0.28l1.73-0.03c0,0,0.25,0.41,0.26,1.03
						c0.01,0.62-0.22,1.15-0.22,1.15l-1.79,0.03l-0.02,0.06c-0.1,1.38-0.54,2.46-1.33,3.5c-0.76,1.02-2.16,1.59-4.14,1.62
						l-0.67,0.01c0,0-0.51-0.95-0.54-2.56c-0.03-1.61,0.44-2.52,0.44-2.52l0.9-0.02c1.73-0.03,2.21-0.08,2.42-0.16
						c0.28-0.11,0.61-0.31,0.6-0.97c-0.01-0.43-0.15-0.76-0.42-0.98c-0.26-0.21-0.63-0.31-1.11-0.3c-1.08,0.02-1.85,0.12-2.33,0.31
						c-0.51,0.2-1.02,0.81-1.57,1.86c-0.85,1.63-1.49,2.76-1.89,3.34c-0.39,0.56-0.95,1.07-1.67,1.49
						c-0.71,0.42-1.54,0.66-2.45,0.68c-1.33,0.02-2.35-0.33-3.11-1.18c-0.77-0.85-1.27-2.08-1.48-3.83l-0.02-0.04l-1.47,0.03
						c0,0-0.33-0.36-0.34-1.14c-0.01-0.78,0.3-1.04,0.3-1.04l1.46-0.03l0.02-0.28c0.15-1.59,0.59-2.87,1.32-3.67
						c0.72-0.78,1.74-1.18,3.04-1.2c0.15,0,0.36,0.02,0.63,0.04c0,0,0.51,0.87,0.54,2.39c0.03,1.52-0.44,2.63-0.44,2.63l-0.53,0.01
						c-0.88,0.02-1.43,0.01-1.72,0.16c-0.34,0.17-0.51,0.43-0.5,0.93c0.01,0.4,0.16,0.71,0.44,0.92c0.27,0.19,0.64,0.28,1.14,0.27
						c0.8-0.01,1.38-0.22,1.71-0.62c0.3-0.35,0.86-1.32,1.69-2.96c0.68-1.36,1.21-2.29,1.57-2.78c0.35-0.47,0.85-0.87,1.51-1.21
						c0.65-0.33,1.49-0.49,2.48-0.51C167.2,210.06,168.47,210.5,169.38,211.35z"/>
				</g>
			</g>
		</g>
		<path class="st2" d="M205.3,221.27c0,4.59-3.76,8.35-8.35,8.35H8.39c-4.59,0-8.35-3.76-8.35-8.35V30.04
			c0-4.59,3.76-8.35,8.35-8.35h188.55c4.59,0,8.35,3.76,8.35,8.35V221.27z"/>
		<path class="st17" d="M175.47,206.94c0,4.59-3.76,8.35-8.35,8.35H23.31c-4.59,0-8.35-3.76-8.35-8.35V24.81
			c0-4.59,3.76-8.35,8.35-8.35h143.8c4.59,0,8.35,3.76,8.35,8.35V206.94z"/>
		<path class="st17" d="M198.02,209.33c0,3.28-2.69,5.97-5.97,5.97h-31.43c-3.28,0-5.97-2.68-5.97-5.97V49.87
			c0-3.28,2.69-5.97,5.97-5.97h31.43c3.28,0,5.97,2.69,5.97,5.97V209.33z"/>
		<path class="st18" d="M177.47,197.4c0,4.59-3.76,8.35-8.35,8.35H23.91c-4.59,0-8.35-3.76-8.35-8.35V15.27
			c0-4.59,3.76-8.35,8.35-8.35h145.2c4.59,0,8.35,3.76,8.35,8.35V197.4z"/>
		<g>
			<g>
				<g>
					<path class="st19" d="M159.74,190.3c0,1.97-1.61,3.58-3.58,3.58h-17.79c-1.97,0-3.58-1.61-3.58-3.58v-17.79
						c0-1.97,1.61-3.58,3.58-3.58h17.79c1.97,0,3.58,1.61,3.58,3.58V190.3z"/>
				</g>
				<g>
					<path class="st17" d="M125.13,190.3c0,1.97-1.61,3.58-3.58,3.58h-17.79c-1.97,0-3.58-1.61-3.58-3.58v-17.79
						c0-1.97,1.61-3.58,3.58-3.58h17.79c1.97,0,3.58,1.61,3.58,3.58V190.3z"/>
				</g>
				<g>
					<path class="st17" d="M90.52,190.3c0,1.97-1.61,3.58-3.58,3.58H69.15c-1.97,0-3.58-1.61-3.58-3.58v-17.79
						c0-1.97,1.61-3.58,3.58-3.58h17.79c1.97,0,3.58,1.61,3.58,3.58V190.3z"/>
				</g>
				<g>
					<path class="st17" d="M55.91,190.3c0,1.97-1.61,3.58-3.58,3.58H34.54c-1.97,0-3.58-1.61-3.58-3.58v-17.79
						c0-1.97,1.61-3.58,3.58-3.58h17.79c1.97,0,3.58,1.61,3.58,3.58V190.3z"/>
				</g>
			</g>
			<g>
				<g>
					<path class="st20" d="M159.74,159.27c0,1.97-1.61,3.58-3.58,3.58h-17.79c-1.97,0-3.58-1.61-3.58-3.58v-17.79
						c0-1.97,1.61-3.58,3.58-3.58h17.79c1.97,0,3.58,1.61,3.58,3.58V159.27z"/>
				</g>
				<g>
					<path class="st17" d="M125.13,159.27c0,1.97-1.61,3.58-3.58,3.58h-17.79c-1.97,0-3.58-1.61-3.58-3.58v-17.79
						c0-1.97,1.61-3.58,3.58-3.58h17.79c1.97,0,3.58,1.61,3.58,3.58V159.27z"/>
				</g>
				<g>
					<path class="st17" d="M90.52,159.27c0,1.97-1.61,3.58-3.58,3.58H69.15c-1.97,0-3.58-1.61-3.58-3.58v-17.79
						c0-1.97,1.61-3.58,3.58-3.58h17.79c1.97,0,3.58,1.61,3.58,3.58V159.27z"/>
				</g>
				<g>
					<path class="st17" d="M55.91,159.27c0,1.97-1.61,3.58-3.58,3.58H34.54c-1.97,0-3.58-1.61-3.58-3.58v-17.79
						c0-1.97,1.61-3.58,3.58-3.58h17.79c1.97,0,3.58,1.61,3.58,3.58V159.27z"/>
				</g>
			</g>
			<g>
				<g>
					<path class="st20" d="M159.74,128.24c0,1.97-1.61,3.58-3.58,3.58h-17.79c-1.97,0-3.58-1.61-3.58-3.58v-17.79
						c0-1.97,1.61-3.58,3.58-3.58h17.79c1.97,0,3.58,1.61,3.58,3.58V128.24z"/>
				</g>
				<g>
					<path class="st17" d="M125.13,128.24c0,1.97-1.61,3.58-3.58,3.58h-17.79c-1.97,0-3.58-1.61-3.58-3.58v-17.79
						c0-1.97,1.61-3.58,3.58-3.58h17.79c1.97,0,3.58,1.61,3.58,3.58V128.24z"/>
				</g>
				<g>
					<path class="st17" d="M90.52,128.24c0,1.97-1.61,3.58-3.58,3.58H69.15c-1.97,0-3.58-1.61-3.58-3.58v-17.79
						c0-1.97,1.61-3.58,3.58-3.58h17.79c1.97,0,3.58,1.61,3.58,3.58V128.24z"/>
				</g>
				<g>
					<path class="st17" d="M55.91,128.24c0,1.97-1.61,3.58-3.58,3.58H34.54c-1.97,0-3.58-1.61-3.58-3.58v-17.79
						c0-1.97,1.61-3.58,3.58-3.58h17.79c1.97,0,3.58,1.61,3.58,3.58V128.24z"/>
				</g>
			</g>
			<g>
				<g>
					<path class="st21" d="M159.74,97.22c0,1.97-1.61,3.58-3.58,3.58h-17.79c-1.97,0-3.58-1.61-3.58-3.58V79.42
						c0-1.97,1.61-3.58,3.58-3.58h17.79c1.97,0,3.58,1.61,3.58,3.58V97.22z"/>
				</g>
				<g>
					<path class="st21" d="M125.13,97.22c0,1.97-1.61,3.58-3.58,3.58h-17.79c-1.97,0-3.58-1.61-3.58-3.58V79.42
						c0-1.97,1.61-3.58,3.58-3.58h17.79c1.97,0,3.58,1.61,3.58,3.58V97.22z"/>
				</g>
				<g>
					<path class="st21" d="M90.52,97.22c0,1.97-1.61,3.58-3.58,3.58H69.15c-1.97,0-3.58-1.61-3.58-3.58V79.42
						c0-1.97,1.61-3.58,3.58-3.58h17.79c1.97,0,3.58,1.61,3.58,3.58V97.22z"/>
				</g>
				<g>
					<path class="st21" d="M55.91,97.22c0,1.97-1.61,3.58-3.58,3.58H34.54c-1.97,0-3.58-1.61-3.58-3.58V79.42
						c0-1.97,1.61-3.58,3.58-3.58h17.79c1.97,0,3.58,1.61,3.58,3.58V97.22z"/>
				</g>
			</g>
		</g>
		<g>
			<path class="st22" d="M166.75,32.22c0,2.63-2.15,4.77-4.77,4.77h-79.8c-2.63,0-4.77-2.15-4.77-4.77V4.77
				c0-2.63,2.15-4.77,4.77-4.77h79.8c2.63,0,4.77,2.15,4.77,4.77V32.22z"/>
			<g class="st23">
				<path class="st2" d="M71.53,54.12c0,2.63-2.15,4.77-4.77,4.77H35.73c-2.63,0-4.77-2.15-4.77-4.77V31.45
					c0-2.63,2.15-4.77,4.77-4.77h31.03c2.63,0,4.77,2.15,4.77,4.77V54.12z"/>
			</g>
			<path class="st17" d="M166.75,56.61c0,1.97-1.61,3.58-3.58,3.58H80.99c-1.97,0-3.58-1.61-3.58-3.58V26.78
				c0-1.97,1.61-3.58,3.58-3.58h82.18c1.97,0,3.58,1.61,3.58,3.58V56.61z"/>
			<g>
				<path class="st24" d="M90.54,49.45c-1.32,0-2.39-1.07-2.39-2.39V33.94c0-1.32,1.07-2.39,2.39-2.39h63.09
					c1.32,0,2.39,1.07,2.39,2.39v13.13c0,1.32-1.07,2.39-2.39,2.39H90.54z"/>
				<path class="st25" d="M153.63,32.75c0.65,0,1.19,0.55,1.19,1.19v13.13c0,0.65-0.55,1.19-1.19,1.19H90.54
					c-0.65,0-1.19-0.55-1.19-1.19V33.94c0-0.65,0.55-1.19,1.19-1.19H153.63L153.63,32.75z M153.63,30.36H90.54
					c-1.97,0-3.58,1.61-3.58,3.58v13.13c0,1.97,1.61,3.58,3.58,3.58h63.09c1.97,0,3.58-1.61,3.58-3.58V33.94
					C157.21,31.97,155.6,30.36,153.63,30.36L153.63,30.36z"/>
			</g>
		</g>
		<path class="st26" d="M71.53,55.31c0,0.66-0.54,1.19-1.19,1.19H32.15c-0.66,0-1.19-0.54-1.19-1.19v-3.58
			c0-0.66,0.54-1.19,1.19-1.19h38.19c0.66,0,1.19,0.54,1.19,1.19V55.31z"/>
		<path class="st27" d="M34.54,55.31V13.55c0-1.31,1.07-2.39,2.39-2.39h28.64c1.31,0,2.39,1.07,2.39,2.39v41.77H34.54z"/>
		<g class="st28">
			<g>
				<g>
					<path class="st26" d="M61.42,48.1H41.13c-0.66,0-1.19-0.53-1.19-1.19c0-0.66,0.53-1.19,1.19-1.19h20.29
						c0.66,0,1.19,0.53,1.19,1.19C62.61,47.56,62.08,48.1,61.42,48.1z"/>
				</g>
			</g>
			<g>
				<g>
					<path class="st26" d="M61.42,42.13H41.13c-0.66,0-1.19-0.53-1.19-1.19c0-0.66,0.53-1.19,1.19-1.19h20.29
						c0.66,0,1.19,0.53,1.19,1.19C62.61,41.6,62.08,42.13,61.42,42.13z"/>
				</g>
			</g>
			<g>
				<g>
					<path class="st26" d="M61.42,36.16H41.13c-0.66,0-1.19-0.53-1.19-1.19c0-0.66,0.53-1.19,1.19-1.19h20.29
						c0.66,0,1.19,0.53,1.19,1.19C62.61,35.63,62.08,36.16,61.42,36.16z"/>
				</g>
			</g>
			<g>
				<g>
					<path class="st26" d="M61.42,30.2H41.13c-0.66,0-1.19-0.53-1.19-1.19c0-0.66,0.53-1.19,1.19-1.19h20.29
						c0.66,0,1.19,0.53,1.19,1.19C62.61,29.66,62.08,30.2,61.42,30.2z"/>
				</g>
			</g>
		</g>
		<g class="st28">
			<path class="st26" d="M60.22,21.55h-17.9c-1.32,0-2.39-1.07-2.39-2.39c0-1.32,1.07-2.39,2.39-2.39h17.9
				c1.32,0,2.39,1.07,2.39,2.39C62.61,20.48,61.54,21.55,60.22,21.55z"/>
		</g>
		<g class="st29">
			<rect x="34.54" y="44.57" class="st17" width="33.41" height="10.74"/>
		</g>
		<g>
			<g>
				<path class="st30" d="M159.74,92.44c0,1.97-1.61,3.58-3.58,3.58h-17.79c-1.97,0-3.58-1.61-3.58-3.58V79.42
					c0-1.97,1.61-3.58,3.58-3.58h17.79c1.97,0,3.58,1.61,3.58,3.58V92.44z"/>
			</g>
			<g>
				<path class="st30" d="M125.13,92.44c0,1.97-1.61,3.58-3.58,3.58h-17.79c-1.97,0-3.58-1.61-3.58-3.58V79.42
					c0-1.97,1.61-3.58,3.58-3.58h17.79c1.97,0,3.58,1.61,3.58,3.58V92.44z"/>
			</g>
			<g>
				<path class="st30" d="M90.52,92.44c0,1.97-1.61,3.58-3.58,3.58H69.15c-1.97,0-3.58-1.61-3.58-3.58V79.42
					c0-1.97,1.61-3.58,3.58-3.58h17.79c1.97,0,3.58,1.61,3.58,3.58V92.44z"/>
			</g>
			<g>
				<path class="st30" d="M55.91,92.44c0,1.97-1.61,3.58-3.58,3.58H34.54c-1.97,0-3.58-1.61-3.58-3.58V79.42
					c0-1.97,1.61-3.58,3.58-3.58h17.79c1.97,0,3.58,1.61,3.58,3.58V92.44z"/>
			</g>
		</g>
		<g>
			<g>
				<path class="st31" d="M159.74,123.47c0,1.97-1.61,3.58-3.58,3.58h-17.79c-1.97,0-3.58-1.61-3.58-3.58v-13.02
					c0-1.97,1.61-3.58,3.58-3.58h17.79c1.97,0,3.58,1.61,3.58,3.58V123.47z"/>
			</g>
			<g>
				<path class="st31" d="M159.74,154.5c0,1.97-1.61,3.58-3.58,3.58h-17.79c-1.97,0-3.58-1.61-3.58-3.58v-13.02
					c0-1.97,1.61-3.58,3.58-3.58h17.79c1.97,0,3.58,1.61,3.58,3.58V154.5z"/>
			</g>
			<g>
				<path class="st32" d="M159.74,185.53c0,1.97-1.61,3.58-3.58,3.58h-17.79c-1.97,0-3.58-1.61-3.58-3.58v-13.02
					c0-1.97,1.61-3.58,3.58-3.58h17.79c1.97,0,3.58,1.61,3.58,3.58V185.53z"/>
			</g>
			<g>
				<path class="st33" d="M125.13,123.47c0,1.97-1.61,3.58-3.58,3.58h-17.79c-1.97,0-3.58-1.61-3.58-3.58v-13.02
					c0-1.97,1.61-3.58,3.58-3.58h17.79c1.97,0,3.58,1.61,3.58,3.58V123.47z"/>
			</g>
			<g>
				<path class="st33" d="M90.52,123.47c0,1.97-1.61,3.58-3.58,3.58H69.15c-1.97,0-3.58-1.61-3.58-3.58v-13.02
					c0-1.97,1.61-3.58,3.58-3.58h17.79c1.97,0,3.58,1.61,3.58,3.58V123.47z"/>
			</g>
			<g>
				<path class="st33" d="M55.91,123.47c0,1.97-1.61,3.58-3.58,3.58H34.54c-1.97,0-3.58-1.61-3.58-3.58v-13.02
					c0-1.97,1.61-3.58,3.58-3.58h17.79c1.97,0,3.58,1.61,3.58,3.58V123.47z"/>
			</g>
		</g>
		<g>
			<path class="st33" d="M125.13,154.5c0,1.97-1.61,3.58-3.58,3.58h-17.79c-1.97,0-3.58-1.61-3.58-3.58v-13.02
				c0-1.97,1.61-3.58,3.58-3.58h17.79c1.97,0,3.58,1.61,3.58,3.58V154.5z"/>
		</g>
		<g>
			<path class="st33" d="M90.52,154.5c0,1.97-1.61,3.58-3.58,3.58H69.15c-1.97,0-3.58-1.61-3.58-3.58v-13.02
				c0-1.97,1.61-3.58,3.58-3.58h17.79c1.97,0,3.58,1.61,3.58,3.58V154.5z"/>
		</g>
		<g>
			<path class="st33" d="M55.91,154.5c0,1.97-1.61,3.58-3.58,3.58H34.54c-1.97,0-3.58-1.61-3.58-3.58v-13.02
				c0-1.97,1.61-3.58,3.58-3.58h17.79c1.97,0,3.58,1.61,3.58,3.58V154.5z"/>
		</g>
		<g>
			<path class="st33" d="M125.13,185.53c0,1.97-1.61,3.58-3.58,3.58h-17.79c-1.97,0-3.58-1.61-3.58-3.58v-13.02
				c0-1.97,1.61-3.58,3.58-3.58h17.79c1.97,0,3.58,1.61,3.58,3.58V185.53z"/>
		</g>
		<g>
			<path class="st33" d="M90.52,185.53c0,1.97-1.61,3.58-3.58,3.58H69.15c-1.97,0-3.58-1.61-3.58-3.58v-13.02
				c0-1.97,1.61-3.58,3.58-3.58h17.79c1.97,0,3.58,1.61,3.58,3.58V185.53z"/>
		</g>
		<g>
			<path class="st33" d="M55.91,185.53c0,1.97-1.61,3.58-3.58,3.58H34.54c-1.97,0-3.58-1.61-3.58-3.58v-13.02
				c0-1.97,1.61-3.58,3.58-3.58h17.79c1.97,0,3.58,1.61,3.58,3.58V185.53z"/>
		</g>
		<g>
			<path class="st2" d="M73.54,264.62c-1.93,0-3.5-1.57-3.5-3.5v-31.5c0-1.93,1.57-3.5,3.5-3.5c1.93,0,3.5,1.57,3.5,3.5v31.5
				C77.04,263.05,75.47,264.62,73.54,264.62z"/>
		</g>
		<g>
			<path class="st2" d="M132.53,264.62c-1.93,0-3.5-1.57-3.5-3.5v-31.5c0-1.93,1.57-3.5,3.5-3.5s3.5,1.57,3.5,3.5v31.5
				C136.03,263.05,134.46,264.62,132.53,264.62z"/>
		</g>
		<polygon class="st34" points="190.86,238.04 186.28,238.04 186.28,246.04 136.28,246.04 136.28,238.04 129.03,238.04 
			129.03,246.04 77.19,246.04 77.19,238.04 70.03,238.04 70.03,242.04 18.27,242.04 18.27,238.04 14.96,238.04 14.96,229.62 
			190.86,229.62 		"/>
		<g>
			<g>
				<path class="st2" d="M44.2,247.71c-1.1,0-2-0.9-2-2v-16.61c0-1.1,0.9-2,2-2s2,0.9,2,2v16.61
					C46.2,246.81,45.31,247.71,44.2,247.71z"/>
			</g>
			<g>
				<path class="st2" d="M52.76,247.71H35.74c-1.1,0-2-0.9-2-2c0-1.1,0.9-2,2-2h17.02c1.1,0,2,0.9,2,2
					C54.76,246.81,53.87,247.71,52.76,247.71z"/>
			</g>
		</g>
		<g>
			<g>
				<path class="st2" d="M102.91,247.71c-1.1,0-2-0.9-2-2v-16.61c0-1.1,0.9-2,2-2s2,0.9,2,2v16.61
					C104.91,246.81,104.02,247.71,102.91,247.71z"/>
			</g>
			<g>
				<path class="st2" d="M111.47,247.71H94.45c-1.1,0-2-0.9-2-2c0-1.1,0.9-2,2-2h17.02c1.1,0,2,0.9,2,2
					C113.47,246.81,112.58,247.71,111.47,247.71z"/>
			</g>
		</g>
		<g>
			<g>
				<path class="st2" d="M161.91,247.71c-1.1,0-2-0.9-2-2v-16.61c0-1.1,0.9-2,2-2c1.1,0,2,0.9,2,2v16.61
					C163.91,246.81,163.02,247.71,161.91,247.71z"/>
			</g>
			<g>
				<path class="st2" d="M170.47,247.71h-17.02c-1.1,0-2-0.9-2-2c0-1.1,0.9-2,2-2h17.02c1.1,0,2,0.9,2,2
					C172.47,246.81,171.58,247.71,170.47,247.71z"/>
			</g>
		</g>
	</g>
	<path class="st18" d="M198.82,199.78c0,3.28-2.69,5.97-5.97,5.97h-2.98c-3.28,0-5.97-2.69-5.97-5.97V40.33
		c0-3.28,2.69-5.97,5.97-5.97h2.98c3.28,0,5.97,2.69,5.97,5.97V199.78z"/>
	<polygon class="st35" points="107.91,48.32 130.76,48.32 135.15,32.72 112.3,32.72 	"/>
	<rect x="7.53" y="229.62" class="st0" width="191.29" height="3.66"/>
	<g>
		<circle class="st17" cx="103.29" cy="291.59" r="6.77"/>
		<g class="st36">
			<path class="st0" d="M103.29,284.82c3.74,0,6.77,3.03,6.77,6.77s-3.03,6.77-6.77,6.77s-6.77-3.03-6.77-6.77
				S99.55,284.82,103.29,284.82L103.29,284.82z M103.29,282.82c-4.84,0-8.77,3.94-8.77,8.77s3.94,8.77,8.77,8.77
				c4.84,0,8.77-3.94,8.77-8.77S108.13,282.82,103.29,282.82L103.29,282.82z"/>
		</g>
	</g>
	<g>
		<g>
			<path class="st2" d="M107.29,292.59h-8.26c-0.55,0-1-0.45-1-1c0-0.55,0.45-1,1-1h8.26c0.55,0,1,0.45,1,1
				C108.29,292.15,107.84,292.59,107.29,292.59z"/>
		</g>
		<path class="st2" d="M101.13,291.59c0-1.19,0.97-2.16,2.16-2.16c1.19,0,2.16,0.97,2.16,2.16s-0.97,2.16-2.16,2.16
			C102.1,293.75,101.13,292.79,101.13,291.59z"/>
	</g>
</g>
</svg>
